<?xml version="1.0" encoding="UTF-8"?>
<svg width="74px" height="74px" viewBox="0 0 74 74" version="1.1" xmlns="http://www.w3.org/2000/svg" xmlns:xlink="http://www.w3.org/1999/xlink">
    <!-- Generator: Sketch 53.2 (72643) - https://sketchapp.com -->
    <title>feedback--thumbs-down</title>
    <desc>Created with Sketch.</desc>
    <g id="Resource---August-19--√" stroke="none" stroke-width="1" fill="none" fill-rule="evenodd">
        <g id="ducks-wireframes-resources-august16" transform="translate(-703.000000, -2258.000000)" fill="#3D3E40">
            <g id="Group-3" transform="translate(0.000000, 2133.000000)">
                <g id="Group-2" transform="translate(559.000000, 74.000000)">
                    <g id="Group" transform="translate(30.000000, 51.000000)">
                        <path d="M138.552503,35.635663 C137.991033,36.2164942 137.719978,36.8038435 137.745793,37.3781564 C137.778062,38.2365602 138.455698,38.8754099 138.462152,38.8819281 C138.784836,39.1723437 138.855761,39.6434623 138.61704,40.0048038 C138.533077,40.1403956 137.790904,41.4052521 138.8364,42.3603966 C140.069118,43.4834013 143.618641,43.2187359 145.599856,42.7863394 C145.625735,42.7798857 145.658004,42.7734966 145.683818,42.7669784 C146.038771,42.7089598 146.413084,42.6314511 146.806694,42.5410996 C147.219794,42.392665 147.787718,42.412026 148.213596,42.7927931 C149.072,43.5543272 148.981648,45.2839132 147.89743,48.5688358 C147.187526,50.7243646 147.161646,52.3506917 147.819986,53.260725 C148.374938,54.0286483 149.297879,54.1254535 149.639924,54.1319717 C149.794747,53.8673063 149.833534,52.9831523 149.723821,52.2604048 C149.697942,52.1119056 149.71085,51.963471 149.762479,51.8279437 C149.885163,51.4923524 152.718329,43.7415485 155.615966,41.4439742 C156.377565,40.6243569 156.700249,39.6627588 156.816415,39.2303623 C156.738971,38.9787333 156.693795,38.7076788 156.693795,38.4301706 L156.693795,27.936424 C156.693795,27.7428136 156.713091,27.5492032 156.751878,27.3685002 L156.099992,27.2910561 L156.093603,27.2910561 C156.048427,27.2846669 151.853536,26.7424933 147.70382,26.8329094 L147.613404,26.8329094 C145.664393,26.6779565 144.076852,26.7231323 142.908736,26.9748903 C141.45014,27.2846669 140.488607,27.8396188 140.05621,28.6140603 C139.604453,29.4207701 139.881961,30.2726558 139.881961,30.2791095 C140.011035,30.64058 139.88835,31.0407081 139.585092,31.272976 C138.733206,31.9119548 138.326624,32.660517 138.371736,33.505949 C138.404004,34.1255667 138.668669,34.5773242 138.668669,34.5837134 C138.875187,34.9193047 138.823493,35.3517657 138.552503,35.635663 Z M163.31527,26.9942514 L163.31527,27.0006405 L159.378525,27.0006405 C158.862231,27.0006405 158.436288,27.4201296 158.436288,27.9429422 L158.436288,38.4301706 C158.436288,38.9464649 158.855777,39.3723432 159.378525,39.3723432 L163.31527,39.3723432 C163.831564,39.3723432 164.257507,38.9528541 164.257507,38.4301706 L164.257507,27.936424 C164.257507,27.4201296 163.838018,26.9942514 163.31527,26.9942514 Z M136.900297,34.8806471 C136.777741,34.551445 136.661511,34.1062057 136.63576,33.5833931 C136.590585,32.6798781 136.816463,31.3956605 138.100746,30.2339982 C138.016783,29.6402598 138.016783,28.7044763 138.539596,27.7621746 C139.223621,26.5295219 140.572505,25.6905437 142.547266,25.2710545 C143.386244,25.090416 144.393083,25 145.548227,25 C146.219474,25 146.942286,25.0322684 147.710209,25.090416 C151.950341,25.0065182 156.080695,25.5292017 156.313028,25.5614701 L157.829642,25.7421731 C158.268493,25.4323965 158.804148,25.251758 159.378525,25.251758 L163.31527,25.251758 C164.793162,25.251758 166,26.4520778 166,27.936424 L166,38.4236524 C166,39.9016094 164.799616,41.1083829 163.31527,41.1083829 L159.378525,41.1083829 C158.91386,41.1083829 158.481464,40.9922166 158.100697,40.7856989 C157.829642,41.3794374 157.429514,42.0570737 156.835776,42.6830806 C156.803507,42.7153489 156.771239,42.7476173 156.732517,42.7734966 C154.712451,44.3287687 152.32459,49.9305621 151.472768,52.2151645 C151.56312,52.9250692 151.647018,54.4610448 150.930659,55.2936339 C150.614365,55.6614291 150.169125,55.8614931 149.685099,55.8614931 C149.181648,55.8614931 147.471423,55.7453915 146.400177,54.2674344 C145.380495,52.8605324 145.328866,50.756633 146.232381,48.0073658 C146.993915,45.6969487 147.064841,44.6708137 147.039091,44.2578428 C146.690592,44.3352224 146.348547,44.4062129 146.025863,44.464296 L146.019345,44.464296 C145.961327,44.4772033 144.541517,44.7934336 142.8442,44.8709423 C140.430524,44.987044 138.68803,44.5675548 137.661831,43.6317714 C136.261447,42.3540075 136.422789,40.7083193 136.842278,39.6627588 C136.480808,39.1917047 136.042022,38.4236524 136.0033,37.4426932 C135.964513,36.5520855 136.267901,35.687357 136.900297,34.8806471 Z M151,74 C130.565464,74 114,57.4345357 114,37 C114,16.5654643 130.565464,0 151,0 C171.434536,0 188,16.5654643 188,37 C188,57.4345357 171.434536,74 151,74 Z M151,72 C170.329966,72 186,56.3299662 186,37 C186,17.6700338 170.329966,2 151,2 C131.670034,2 116,17.6700338 116,37 C116,56.3299662 131.670034,72 151,72 Z" id="feedback--thumbs-down"></path>
                    </g>
                </g>
            </g>
        </g>
    </g>
</svg>