<?xml version="1.0" encoding="UTF-8"?>
<svg width="74px" height="74px" viewBox="0 0 74 74" version="1.1" xmlns="http://www.w3.org/2000/svg" xmlns:xlink="http://www.w3.org/1999/xlink">
    <!-- Generator: Sketch 53.2 (72643) - https://sketchapp.com -->
    <title>Combined Shape</title>
    <desc>Created with Sketch.</desc>
    <g id="Resource---August-19--√" stroke="none" stroke-width="1" fill="none" fill-rule="evenodd">
        <g id="ducks-wireframes-resources-august16" transform="translate(-589.000000, -2258.000000)" fill="#3D3E40">
            <g id="Group-3" transform="translate(0.000000, 2133.000000)">
                <g id="Group-2" transform="translate(559.000000, 74.000000)">
                    <g id="Group" transform="translate(30.000000, 51.000000)">
                        <path d="M49.4474969,39.2258301 C50.008967,38.644999 50.2800215,38.0576497 50.2542068,37.4833368 C50.2219384,36.6249329 49.5443021,35.9860832 49.5378484,35.979565 C49.2151645,35.6891494 49.1442386,35.2180309 49.3829601,34.8566894 C49.4669225,34.7210976 50.2090956,33.456241 49.1635996,32.5010965 C47.9308824,31.3780919 44.3813589,31.6427572 42.400144,32.0751537 C42.3742647,32.0816074 42.3419963,32.0879965 42.3161816,32.0945148 C41.9612293,32.1525333 41.5869159,32.230042 41.193306,32.3203935 C40.780206,32.4688281 40.2122822,32.4494671 39.786404,32.0687 C38.9280001,31.3071659 39.0183516,29.5775799 40.1025697,26.2926573 C40.8124744,24.1371285 40.8383536,22.5108014 40.1800138,21.6007681 C39.625062,20.8328448 38.7021213,20.7360397 38.3600764,20.7295214 C38.2052526,20.9941868 38.166466,21.8783408 38.2761785,22.6010884 C38.3020578,22.7495875 38.2891504,22.8980221 38.237521,23.0335494 C38.1148365,23.3691407 35.2816715,31.1199447 32.3840341,33.417519 C31.6224354,34.2371362 31.2997515,35.1987344 31.1835853,35.6311309 C31.2610294,35.8827598 31.3062052,36.1538143 31.3062052,36.4313225 L31.3062052,46.9250692 C31.3062052,47.1186796 31.2869087,47.3122899 31.2481221,47.4929929 L31.9000082,47.5704371 L31.9063973,47.5704371 C31.9515731,47.5768262 36.1464644,48.1189998 40.2961801,48.0285838 L40.3865961,48.0285838 C42.3356072,48.1835366 43.9231477,48.1383608 45.0912636,47.8866028 C46.5498596,47.5768262 47.5113932,47.0218744 47.9437897,46.2474329 C48.3955473,45.440723 48.1180391,44.5888374 48.1180391,44.5823837 C47.9889655,44.2209131 48.1116499,43.820785 48.4149083,43.5885171 C49.2667939,42.9495384 49.6733757,42.2009761 49.6282645,41.3555442 C49.5959961,40.7359265 49.3313307,40.2841689 49.3313307,40.2777798 C49.124813,39.9421885 49.176507,39.5097274 49.4474969,39.2258301 Z M24.6847305,47.8672418 L24.6847305,47.8608526 L28.6214747,47.8608526 C29.137769,47.8608526 29.5637118,47.4413635 29.5637118,46.918551 L29.5637118,36.4313225 C29.5637118,35.9150282 29.1442227,35.4891499 28.6214747,35.4891499 L24.6847305,35.4891499 C24.1684362,35.4891499 23.7424933,35.9086391 23.7424933,36.4313225 L23.7424933,46.9250692 C23.7424933,47.4413635 24.1619825,47.8672418 24.6847305,47.8672418 Z M51.0997033,39.980846 C51.2222587,40.3100482 51.3384894,40.7552875 51.3642396,41.2781 C51.4094154,42.1816151 51.1835366,43.4658327 49.8992545,44.6274949 C49.9832168,45.2212334 49.9832168,46.1570168 49.4604043,47.0993185 C48.7763789,48.3319712 47.4274954,49.1709495 45.4527341,49.5904386 C44.6137559,49.7710771 43.6069174,49.8614931 42.4517734,49.8614931 C41.7805262,49.8614931 41.0577142,49.8292247 40.2897909,49.7710771 C36.0496593,49.8549749 31.9193047,49.3322915 31.6869722,49.3000231 L30.1703577,49.1193201 C29.7315075,49.4290966 29.1958521,49.6097351 28.6214747,49.6097351 L24.6847305,49.6097351 C23.206838,49.6097351 22,48.4094154 22,46.9250692 L22,36.4378408 C22,34.9598837 23.2003843,33.7531103 24.6847305,33.7531103 L28.6214747,33.7531103 C29.0861396,33.7531103 29.5185361,33.8692765 29.8993031,34.0757942 C30.1703577,33.4820558 30.5704858,32.8044195 31.1642242,32.1784126 C31.1964926,32.1461442 31.228761,32.1138758 31.2674831,32.0879965 C33.2875492,30.5327244 35.6754104,24.930931 36.5272315,22.6463287 C36.43688,21.936424 36.3529822,20.4004484 37.0693405,19.5678592 C37.3856354,19.2000641 37.8308747,19 38.3149006,19 C38.8183521,19 40.528577,19.1161017 41.5998232,20.5940587 C42.6195045,22.0009608 42.6711339,24.1048601 41.7676189,26.8541274 C41.0060848,29.1645445 40.9351588,30.1906794 40.960909,30.6036504 C41.3094077,30.5262708 41.6514527,30.4552803 41.9741366,30.3971972 L41.9806548,30.3971972 C42.0386734,30.3842898 43.4584828,30.0680595 45.1558004,29.9905509 C47.5694763,29.8744492 49.3119697,30.2939383 50.3381692,31.2297218 C51.738553,32.5074857 51.577211,34.1531738 51.1577219,35.1987344 C51.5191924,35.6697884 51.9579781,36.4378408 51.9967002,37.4188 C52.0354868,38.3094077 51.7320993,39.1741361 51.0997033,39.980846 Z M37,74 C16.5654643,74 0,57.4345357 0,37 C0,16.5654643 16.5654643,0 37,0 C57.4345357,0 74,16.5654643 74,37 C74,57.4345357 57.4345357,74 37,74 Z M37,72 C56.3299662,72 72,56.3299662 72,37 C72,17.6700338 56.3299662,2 37,2 C17.6700338,2 2,17.6700338 2,37 C2,56.3299662 17.6700338,72 37,72 Z" id="Combined-Shape"></path>
                    </g>
                </g>
            </g>
        </g>
    </g>
</svg>