<?xml version="1.0" encoding="UTF-8"?>
<svg width="18px" height="18px" viewBox="0 0 18 18" version="1.1" xmlns="http://www.w3.org/2000/svg" xmlns:xlink="http://www.w3.org/1999/xlink">
    <!-- Generator: Sketch 53.2 (72643) - https://sketchapp.com -->
    <title></title>
    <desc>Created with Sketch.</desc>
    <g id="CNT-Wireframe" stroke="none" stroke-width="1" fill="none" fill-rule="evenodd">
        <path d="M9,15.68 C10.200006,15.68 11.3199948,15.3733364 12.36,14.76 C13.3733384,14.1733304 14.1733304,13.3733384 14.76,12.36 C15.3733364,11.3199948 15.68,10.200006 15.68,9 C15.68,7.799994 15.3733364,6.6800052 14.76,5.64 C14.1733304,4.6266616 13.3733384,3.8266696 12.36,3.24 C11.3199948,2.6266636 10.200006,2.32 9,2.32 C7.799994,2.32 6.6800052,2.6266636 5.64,3.24 C4.6266616,3.8266696 3.8266696,4.6266616 3.24,5.64 C2.6266636,6.6800052 2.32,7.799994 2.32,9 C2.32,10.200006 2.6266636,11.3199948 3.24,12.36 C3.8266696,13.3733384 4.6266616,14.1733304 5.64,14.76 C6.6800052,15.3733364 7.799994,15.68 9,15.68 Z M9,0.68 C10.5200076,0.68 11.9266602,1.0599962 13.22,1.82 C14.4733396,2.5400036 15.4599964,3.5266604 16.18,4.78 C16.9400038,6.0733398 17.32,7.4799924 17.32,9 C17.32,10.5200076 16.9400038,11.9266602 16.18,13.22 C15.4599964,14.4733396 14.4733396,15.4599964 13.22,16.18 C11.9266602,16.9400038 10.5200076,17.32 9,17.32 C7.4799924,17.32 6.0733398,16.9400038 4.78,16.18 C3.5266604,15.446663 2.5400036,14.4533396 1.82,13.2 C1.0599962,11.9066602 0.68,10.5066742 0.68,9 C0.68,7.4933258 1.0599962,6.0933398 1.82,4.8 C2.553337,3.5466604 3.5466604,2.553337 4.8,1.82 C6.0933398,1.0599962 7.4933258,0.68 9,0.68 Z M8.18,4.82 L9.82,4.82 L9.82,9.82 L8.18,9.82 L8.18,4.82 Z M8.18,11.5 L9.82,11.5 L9.82,13.18 L8.18,13.18 L8.18,11.5 Z" id="" fill="#000000" fill-rule="nonzero"></path>
    </g>
</svg>