<?xml version="1.0" encoding="UTF-8"?>
<svg width="14px" height="18px" viewBox="0 0 14 18" version="1.1" xmlns="http://www.w3.org/2000/svg" xmlns:xlink="http://www.w3.org/1999/xlink">
    <!-- Generator: Sketch 53.2 (72643) - https://sketchapp.com -->
    <title></title>
    <desc>Created with Sketch.</desc>
    <g id="CNT-Wireframe" stroke="none" stroke-width="1" fill="none" fill-rule="evenodd">
        <path d="M7.82,6.5 L12.44,6.5 L7.82,1.92 L7.82,6.5 Z M10.32,10.68 L10.32,9 L3.68,9 L3.68,10.68 L10.32,10.68 Z M10.32,14 L10.32,12.32 L3.68,12.32 L3.68,14 L10.32,14 Z M8.68,0.68 L13.68,5.68 L13.68,15.68 C13.68,16.1333356 13.513335,16.5199984 13.18,16.84 C12.846665,17.1600016 12.4533356,17.32 12,17.32 L2,17.32 C1.5466644,17.32 1.153335,17.1600016 0.82,16.84 C0.486665,16.5199984 0.32,16.1333356 0.32,15.68 L0.36,2.32 C0.36,1.8666644 0.5199984,1.4800016 0.84,1.16 C1.1600016,0.8399984 1.5466644,0.68 2,0.68 L8.68,0.68 Z" id="" fill="#000000" fill-rule="nonzero"></path>
    </g>
</svg>