<?xml version="1.0" encoding="UTF-8"?>
<svg width="18px" height="18px" viewBox="0 0 18 18" version="1.1" xmlns="http://www.w3.org/2000/svg" xmlns:xlink="http://www.w3.org/1999/xlink">
    <!-- Generator: Sketch 53.2 (72643) - https://sketchapp.com -->
    <title></title>
    <desc>Created with Sketch.</desc>
    <g id="CNT-Wireframe" stroke="none" stroke-width="1" fill="none" fill-rule="evenodd">
        <path d="M9,11.92 C9.5200026,11.92 10.0066644,11.786668 10.46,11.52 C10.9133356,11.253332 11.273332,10.8966689 11.54,10.45 C11.806668,10.0033311 11.94,9.5200026 11.94,9 C11.94,8.4799974 11.806668,7.9933356 11.54,7.54 C11.273332,7.0866644 10.9133356,6.726668 10.46,6.46 C10.0066644,6.193332 9.5200026,6.06 9,6.06 C8.4799974,6.06 7.9966689,6.193332 7.55,6.46 C7.1033311,6.726668 6.746668,7.0866644 6.48,7.54 C6.213332,7.9933356 6.08,8.4799974 6.08,9 C6.08,9.5200026 6.213332,10.0033311 6.48,10.45 C6.746668,10.8966689 7.1033311,11.253332 7.55,11.52 C7.9966689,11.786668 8.4799974,11.92 9,11.92 Z M15.22,9.82 L16.96,11.18 C17.0400004,11.246667 17.0866666,11.3333328 17.1,11.44 C17.1133334,11.5466672 17.0933336,11.6466662 17.04,11.74 L15.36,14.62 C15.3066664,14.7133338 15.2366671,14.7733332 15.15,14.8 C15.0633329,14.8266668 14.9666672,14.8200002 14.86,14.78 L12.8,13.96 C12.266664,14.3466686 11.7933354,14.6199992 11.38,14.78 L11.08,16.96 C11.0533332,17.0666672 11.0033337,17.153333 10.93,17.22 C10.8566663,17.286667 10.7733338,17.32 10.68,17.32 L7.32,17.32 C7.2266662,17.32 7.1433337,17.286667 7.07,17.22 C6.9966663,17.153333 6.9533334,17.0666672 6.94,16.96 L6.62,14.78 C6.0599972,14.5533322 5.5933352,14.2800016 5.22,13.96 L3.14,14.78 C2.9266656,14.8733338 2.7600006,14.820001 2.64,14.62 L0.96,11.74 C0.9066664,11.6466662 0.8866666,11.5466672 0.9,11.44 C0.9133334,11.3333328 0.9599996,11.246667 1.04,11.18 L2.8,9.82 C2.7733332,9.6333324 2.76,9.3600018 2.76,9 C2.76,8.6399982 2.7733332,8.3666676 2.8,8.18 L1.04,6.82 C0.9599996,6.753333 0.9133334,6.6666672 0.9,6.56 C0.8866666,6.4533328 0.9066664,6.3533338 0.96,6.26 L2.64,3.38 C2.7600006,3.179999 2.9266656,3.1266662 3.14,3.22 L5.22,4.04 C5.7000024,3.6799982 6.1666644,3.4066676 6.62,3.22 L6.94,1.04 C6.9533334,0.9333328 6.9966663,0.846667 7.07,0.78 C7.1433337,0.713333 7.2266662,0.68 7.32,0.68 L10.68,0.68 C10.7733338,0.68 10.8566663,0.713333 10.93,0.78 C11.0033337,0.846667 11.0533332,0.9333328 11.08,1.04 L11.38,3.22 C11.9000026,3.420001 12.3733312,3.6933316 12.8,4.04 L14.86,3.22 C14.9666672,3.1799998 15.0633329,3.1733332 15.15,3.2 C15.2366671,3.2266668 15.3066664,3.2866662 15.36,3.38 L17.04,6.26 C17.0933336,6.3533338 17.1133334,6.4533328 17.1,6.56 C17.0866666,6.6666672 17.0400004,6.753333 16.96,6.82 L15.22,8.18 C15.2466668,8.3666676 15.26,8.6399982 15.26,9 C15.26,9.3600018 15.2466668,9.6333324 15.22,9.82 Z" id="" fill="#FFFFFF" fill-rule="nonzero"></path>
    </g>
</svg>