<?xml version="1.0" encoding="UTF-8"?>
<svg width="14px" height="4px" viewBox="0 0 14 4" version="1.1" xmlns="http://www.w3.org/2000/svg" xmlns:xlink="http://www.w3.org/1999/xlink">
    <!-- Generator: Sketch 53.2 (72643) - https://sketchapp.com -->
    <title>Elipsis Icon</title>
    <desc>Created with Sketch.</desc>
    <g stroke="none" stroke-width="1" fill="none" fill-rule="evenodd">
        <path class="icon icon--elipsis" d="M7,0.32 C7.4533356,0.32 7.846665,0.486665 8.18,0.82 C8.513335,1.153335 8.68,1.5466644 8.68,2 C8.68,2.4533356 8.513335,2.846665 8.18,3.18 C7.846665,3.513335 7.4533356,3.68 7,3.68 C6.5466644,3.68 6.153335,3.513335 5.82,3.18 C5.486665,2.846665 5.32,2.4533356 5.32,2 C5.32,1.5466644 5.486665,1.153335 5.82,0.82 C6.153335,0.486665 6.5466644,0.32 7,0.32 Z M12,0.32 C12.4533356,0.32 12.846665,0.486665 13.18,0.82 C13.513335,1.153335 13.68,1.5466644 13.68,2 C13.68,2.4533356 13.513335,2.846665 13.18,3.18 C12.846665,3.513335 12.4533356,3.68 12,3.68 C11.5466644,3.68 11.153335,3.513335 10.82,3.18 C10.486665,2.846665 10.32,2.4533356 10.32,2 C10.32,1.5466644 10.486665,1.153335 10.82,0.82 C11.153335,0.486665 11.5466644,0.32 12,0.32 Z M2,0.32 C2.4533356,0.32 2.846665,0.486665 3.18,0.82 C3.513335,1.153335 3.68,1.5466644 3.68,2 C3.68,2.4533356 3.513335,2.846665 3.18,3.18 C2.846665,3.513335 2.4533356,3.68 2,3.68 C1.5466644,3.68 1.153335,3.513335 0.82,3.18 C0.486665,2.846665 0.32,2.4533356 0.32,2 C0.32,1.5466644 0.486665,1.153335 0.82,0.82 C1.153335,0.486665 1.5466644,0.32 2,0.32 Z" fill="#000000" fill-rule="nonzero"></path>
    </g>
</svg>