<?xml version="1.0" encoding="UTF-8"?>
<svg width="12px" height="12px" viewBox="0 0 12 12" version="1.1" xmlns="http://www.w3.org/2000/svg" xmlns:xlink="http://www.w3.org/1999/xlink">
    <!-- Generator: Sketch 53.2 (72643) - https://sketchapp.com -->
    <title>search-icon</title>
    <desc>Created with Sketch.</desc>
    <g id="Symbols" stroke="none" stroke-width="1" fill="none" fill-rule="evenodd">
        <g id="Main-Nav" transform="translate(-1300.000000, -16.000000)" fill="#000000">
            <path d="M1304.47737,23.5555556 C1305.03704,23.5555556 1305.55281,23.4156393 1306.02469,23.1358025 C1306.49657,22.8559657 1306.86968,22.4801121 1307.14403,22.0082305 C1307.41838,21.5363488 1307.55556,21.0205789 1307.55556,20.4609053 C1307.55556,19.9012318 1307.41838,19.3854619 1307.14403,18.9135802 C1306.86968,18.4416986 1306.49657,18.0685885 1306.02469,17.7942387 C1305.55281,17.5198889 1305.03704,17.382716 1304.47737,17.382716 C1303.91769,17.382716 1303.40192,17.5198889 1302.93004,17.7942387 C1302.45816,18.0685885 1302.08231,18.4416986 1301.80247,18.9135802 C1301.52263,19.3854619 1301.38272,19.9012318 1301.38272,20.4609053 C1301.38272,21.0205789 1301.52263,21.5363488 1301.80247,22.0082305 C1302.08231,22.4801121 1302.45816,22.8559657 1302.93004,23.1358025 C1303.40192,23.4156393 1303.91769,23.5555556 1304.47737,23.5555556 Z M1308.59259,23.5555556 L1312,26.962963 L1310.96296,28 L1307.55556,24.5761317 L1307.55556,24.0329218 L1307.35802,23.8518519 C1306.97393,24.1920456 1306.53224,24.452674 1306.03292,24.6337449 C1305.53361,24.8148157 1305.01509,24.9053498 1304.47737,24.9053498 C1303.66529,24.9053498 1302.91633,24.7078209 1302.23045,24.3127572 C1301.54458,23.9176935 1301.00412,23.3854629 1300.60905,22.7160494 C1300.20302,22.0246879 1300,21.2729807 1300,20.4609053 C1300,19.64883 1300.20027,18.8998663 1300.60082,18.2139918 C1301.00137,17.5281173 1301.54458,16.9876563 1302.23045,16.5925926 C1302.91633,16.1975289 1303.66529,16 1304.47737,16 C1305.28944,16 1306.04115,16.2030158 1306.73251,16.6090535 C1307.40192,17.0041172 1307.93141,17.5418347 1308.32099,18.2222222 C1308.71056,18.9026097 1308.90535,19.64883 1308.90535,20.4609053 C1308.90535,21.0096049 1308.81482,21.5336052 1308.63374,22.0329218 C1308.45267,22.5322384 1308.19205,22.973935 1307.85185,23.3580247 L1308.03292,23.5555556 L1308.59259,23.5555556 Z" id="search-icon" transform="translate(1306.000000, 22.000000) scale(-1, 1) translate(-1306.000000, -22.000000) "></path>
        </g>
    </g>
</svg>