<?xml version="1.0" encoding="UTF-8"?>
<svg width="17px" height="17px" viewBox="0 0 17 17" version="1.1" xmlns="http://www.w3.org/2000/svg" xmlns:xlink="http://www.w3.org/1999/xlink">
    <!-- Generator: Sketch 53.2 (72643) - https://sketchapp.com -->
    <title>search-icon</title>
    <desc>Created with Sketch.</desc>
    <g id="Page-1" stroke="none" stroke-width="1" fill="none" fill-rule="evenodd">
        <g id="boilerplate--wireframe--landing-page" transform="translate(-828.000000, -98.000000)" fill="#001F4E" fill-rule="nonzero">
            <g id="Search" transform="translate(810.000000, 81.000000)">
                <path d="M30.2011719,27.2011719 L34.7773438,31.7988281 L33.4238281,33.1523438 L28.8261719,28.5761719 L28.8261719,27.8671875 L28.5898438,27.609375 C28.0598932,28.0533876 27.4654981,28.4042956 26.8066406,28.6621094 C26.1477832,28.9199232 25.4459673,29.0488281 24.7011719,29.0488281 C23.8847615,29.0488281 23.1113318,28.8912776 22.3808594,28.5761719 C21.66471,28.2610661 21.0380886,27.8349636 20.5009766,27.2978516 C19.9638645,26.7607395 19.537762,26.1269568 19.2226562,25.3964844 C18.9075505,24.680335 18.75,23.9069052 18.75,23.0761719 C18.75,22.2597615 18.9075505,21.4863318 19.2226562,20.7558594 C19.537762,20.03971 19.9638645,19.4130886 20.5009766,18.8759766 C21.0380886,18.3388645 21.66471,17.912762 22.3808594,17.5976562 C23.1113318,17.2825505 23.8847615,17.125 24.7011719,17.125 C25.5319052,17.125 26.305335,17.2825505 27.0214844,17.5976562 C27.7519568,17.912762 28.3857395,18.3388645 28.9228516,18.8759766 C29.4599636,19.4130886 29.8860661,20.03971 30.2011719,20.7558594 C30.5162776,21.4863318 30.6738281,22.2597615 30.6738281,23.0761719 C30.6738281,23.8209673 30.5449232,24.5227832 30.2871094,25.1816406 C30.0292956,25.8404981 29.6783876,26.4348932 29.234375,26.9648438 L29.4921875,27.2011719 L30.2011719,27.2011719 Z M24.7011719,27.2011719 C25.8470109,27.2011719 26.8209595,26.8001342 27.6230469,25.9980469 C28.4251342,25.1959595 28.8261719,24.2220109 28.8261719,23.0761719 C28.8261719,21.9446558 28.4251342,20.9742879 27.6230469,20.1650391 C26.8209595,19.3557902 25.8470109,18.9511719 24.7011719,18.9511719 C23.5696558,18.9511719 22.5992879,19.3557902 21.7900391,20.1650391 C20.9807902,20.9742879 20.5761719,21.9446558 20.5761719,23.0761719 C20.5761719,24.2220109 20.9807902,25.1959595 21.7900391,25.9980469 C22.5992879,26.8001342 23.5696558,27.2011719 24.7011719,27.2011719 Z" id="search-icon"></path>
            </g>
        </g>
    </g>
</svg>