<svg version="1.0" xmlns="http://www.w3.org/2000/svg" width="1333.333" height="1333.333" viewBox="0 0 1000 1000"><path d="M484.5 5.6c-151.7 5.1-290.8 77.9-381.6 199.6-55.1 73.9-88.2 162-96 255.3-1.5 18-1.5 61 0 79 8.7 104.1 47.4 198.2 115.2 279.6 13.3 15.9 42.9 45.5 58.8 58.8 81.3 67.7 175.8 106.6 279.6 115.2 18 1.4 61 1.4 79 0 83.4-6.9 162.8-34.1 232.2-79.8 47-30.8 91.2-72.6 125.4-118.5 42.2-56.6 72.1-122.9 86.8-192.4 7.1-33.4 10.3-65.2 10.3-102.4 0-28.5-1.1-45.3-4.8-70.9-10.2-71.6-36.1-140-76.1-200.8-30.8-47-72.6-91.2-118.5-125.4C745.7 66.2 686.7 37.7 628 22.1c-44.6-11.9-98-18-143.5-16.5zM513.7 113c6.2 2.6 13.5 10 16.6 16.8l2.2 4.7.3 108.5.2 108.5 9.8 2.8c12.3 3.5 24.8 8.6 32.6 13.2l5.9 3.6 75.6-75.4c61.3-61.1 76.5-75.8 80.6-77.7 7.5-3.5 19.1-3.9 27-.9 8 3 15.4 10.4 18.4 18.4 3 7.9 2.6 19.5-.9 27-1.9 4.1-16.6 19.3-77.7 80.6l-75.4 75.5 5.5 10.8c3 6 7.4 16.8 9.8 24.2l4.3 13.3 108.5.3 108.5.3 5.5 2.6c7.4 3.4 12 7.6 15.6 14.1 2.6 4.8 2.9 6.1 2.9 14.8 0 7.8-.4 10.4-2.4 14.7-2.8 6.2-10.2 13.6-16.9 16.6l-4.7 2.2-108.5.3-108.5.2-2.8 9.8c-3.5 12.2-8.6 24.8-13.2 32.5l-3.5 5.9 13.9 14.7c7.7 8 26.2 26.7 41.1 41.6 14.9 14.8 42.6 42.8 61.5 62.1l34.4 35.1 2.2 7.3c3.6 12 1.4 22.7-6.8 32.6-9.4 11.3-24.7 14.2-38.6 7.3-2.8-1.4-28.8-26.7-79.8-77.5l-75.5-75.5-11 5.5c-6 3-16.8 7.5-24.1 9.8l-13.2 4.3-.1 54.1c0 51.4-.1 54.5-2 60.7-9.1 29.5-52.9 29.5-62 0-1.9-6.2-2-9.2-2-60.7v-54.1l-9.8-2.8c-12.2-3.5-24.8-8.6-32.6-13.3l-6-3.5-76.5 76.4c-54.8 54.8-77.9 77.2-81.1 78.8-6.3 3.1-16.1 3.7-23.6 1.3-4.6-1.4-7.2-3.1-12-7.9-8-7.8-10.7-14.6-10.2-25.5.6-13.9-2.1-10.7 75.5-89.2 38.4-38.7 72.2-72.9 75.1-76l5.3-5.4-5.5-10.8c-3-6-7.4-16.8-9.8-24.2l-4.3-13.3-54.1-.1c-51.4 0-54.5-.1-60.7-2-29.5-9.1-29.5-52.9 0-62 6.2-1.9 9.2-2 60.7-2h54.1l2.8-9.8c3.5-12.3 8.6-24.8 13.3-32.6l3.6-6.1-76.1-75.5c-85.3-84.7-81.5-80.2-81.5-94.5-.1-10.2 2.5-16.6 9.3-23.6 7.4-7.5 14.4-10.2 25.1-9.7 13.9.6 10.7-2.1 89.2 75.5 38.7 38.4 72.9 72.2 76 75.1l5.4 5.3 10.8-5.5c6-3 16.8-7.4 24.2-9.8l13.3-4.3.3-108.5.3-108.5 2.2-4.7c2.5-5.5 9.4-13.3 13.7-15.5 9.3-4.9 21-5.4 30.3-1.3zm-138 26.1c4.2 1.6 7.3 3.7 11.3 7.8 5.3 5.4 6.1 7.1 20 39.6l14.5 34-.1 8.5c0 6.6-.5 9.6-2.2 13.3-4.5 10-12.4 16.6-23.3 19.2-8.3 2.1-14.1 1.5-21.6-2.1-10.1-4.9-12.3-8.5-28.3-46.5l-14.5-34.4.1-9c0-7 .5-10 2.1-13.6 3.8-8.4 11.7-15.5 19.4-17.8 6.1-1.7 16.4-1.3 22.6 1zm273 1.1c7 2.6 14.5 9.8 18 17.3 2.2 4.8 2.7 7.4 2.7 13-.1 6.7-.8 8.6-15 43-14 33.7-15.2 36.2-19.9 41.1-9.4 9.6-23.8 12.1-36.6 6.2-10.1-4.6-15.4-10.8-18.5-21.4-2.8-9.8-1.9-13.1 13.1-49.2 15-35.9 16.8-39.5 22-44.1 9.8-8.6 21.4-10.6 34.2-5.9zM845.5 333c5.3 2.6 11.9 9 14.8 14.4 1.8 3.4 2.2 5.8 2.2 14.1 0 12.1-1.9 17.1-9.3 24.3-4.5 4.4-7.6 5.9-38.8 18.9-40.2 16.7-39.1 16.3-46.5 16.3-12.3 0-22.5-6.5-28.1-17.8-2.9-5.9-3.3-7.6-3.3-14.7.1-11.8 4.8-21.2 13.8-27.3 6.3-4.4 69.1-30.3 75.2-31.1 6.7-.9 14.6.3 20 2.9zm-61 248.4c41.6 16.8 63 26.4 67.2 30 12 10.5 15.3 25.9 8.7 40.6-3.6 8.1-9.6 13.4-18.2 16-7.7 2.4-12.1 2.5-18.8.5-9-2.6-69.4-28.4-73.8-31.5-5.4-3.6-10.2-10.7-12.3-17.9-4-14 3.6-30.9 17.1-37.8 9.6-4.9 17.7-4.9 30.1.1z"/><path d="M488.4 415c-33.9 4.8-62.6 30.5-71.5 64-3.2 12-3.2 30 0 42 8 30.1 32 54.1 62.1 62.1 12 3.2 30 3.2 42 0 30.1-8 54.1-32 62.1-62.1 3.2-12 3.2-30 0-42-7.9-29.8-32.1-54.2-61.4-61.9-9-2.3-24.6-3.3-33.3-2.1z"/></svg>