<?xml version="1.0" encoding="UTF-8"?>
<svg width="526px" height="92px" viewBox="0 0 526 92" version="1.1" xmlns="http://www.w3.org/2000/svg" xmlns:xlink="http://www.w3.org/1999/xlink">
    <!-- Generator: Sketch 53.2 (72643) - https://sketchapp.com -->
    <title>Northern Logo</title>
    <desc>Created with Sketch.</desc>
    <g id="Page-1" stroke="none" stroke-width="1" fill="none" fill-rule="evenodd">
        <g id="logo">
            <polyline id="Path" fill="#BD2536" points="15 14 32.5017863 0 50 14 15.0035725 14"></polyline>
            <path d="M116.687019,60.0018146 C116.687019,49.3684151 109.216613,42.3133541 99.5522279,42.3133541 C90.0872958,42.3133541 82.6168897,49.3647859 82.6168897,60.0018146 C82.6168897,70.6352141 90.0872958,77.6866459 99.5522279,77.6866459 C109.212986,77.6866459 116.687019,70.6315849 116.687019,60.0018146 Z M67.6760774,60.0018146 C67.6760774,42.4149702 79.7302667,28 99.5522279,28 C119.573642,28 131.627831,42.4149702 131.627831,60.0018146 C131.627831,77.5850298 119.573642,92 99.5522279,92 C79.7302667,92 67.6760774,77.5850298 67.6760774,60.0018146 Z M173.610788,44.1460731 L160.374389,44.1460731 L160.374389,62.2809186 L173.712328,62.2809186 C180.42844,62.2809186 184.138259,59.2578395 184.138259,53.2153105 C184.138259,47.3723845 180.330527,44.1460731 173.610788,44.1460731 Z M145.839735,31.5529345 L174.212772,31.5529345 C189.45095,31.5529345 199.176984,39.413666 199.176984,52.609243 C199.176984,61.0724128 195.369253,67.1149419 189.149958,70.6424724 L189.149958,71.9489651 L202.68735,90.9910972 L202.68735,92 L186.143664,92 L174.314312,74.3696059 L160.378015,74.3696059 L160.378015,92 L145.836108,92 L145.836108,31.5565637 L145.839735,31.5529345 Z M263.085221,31.5565637 L263.085221,44.1497023 L243.890629,44.1497023 L243.890629,92 L229.08762,92 L229.08762,44.1460731 L209.795115,44.1460731 L209.795115,31.5565637 L263.085221,31.5565637 Z M309.557674,92 L309.557674,68.3234477 L284.118403,68.3234477 L284.118403,92 L270.192986,92 L270.192986,31.5565637 L284.118403,31.5565637 L284.118403,56.8408279 L309.564927,56.8408279 L309.564927,31.5565637 L323.490345,31.5565637 L323.490345,92 L309.557674,92 Z M380.85291,67.5214063 L355.286714,67.5214063 L355.286714,79.4068614 L387.438472,79.4068614 L387.438472,92 L341.248878,92 L341.248878,31.5565637 L387.438472,31.5565637 L387.438472,44.1497023 L355.29034,44.1497023 L355.29034,56.0351574 L380.85291,56.0351574 L380.85291,67.5214063 Z M429.417803,44.1460731 L416.18503,44.1460731 L416.18503,62.2809186 L429.519342,62.2809186 C436.235455,62.2809186 439.948899,59.2578395 439.948899,53.2153105 C439.948899,47.3723845 436.137542,44.1460731 429.417803,44.1460731 Z M401.646749,31.5529345 L430.019787,31.5529345 C445.261591,31.5529345 454.983998,39.413666 454.983998,52.609243 C454.983998,61.0724128 451.176267,67.1149419 444.960599,70.6424724 L444.960599,71.9489651 L458.494364,90.9910972 L458.494364,92 L441.950678,92 L430.121326,74.3696059 L416.18503,74.3696059 L416.18503,92 L401.646749,92 L401.646749,31.5529345 Z M526,92 L522.678208,92 L483.643522,58.6554012 L483.643522,92 L469.152385,92 L469.152385,31.5565637 L472.474177,31.5565637 L511.512489,63.5910405 L511.512489,31.6545506 L526,31.6545506 L526,92 Z M56.5647549,91.3140913 L53.2610947,91.3140913 L14.4149827,58.1872413 L14.4149827,91.3140913 L0,91.3140913 L0,31.2626028 L3.30366019,31.2626028 L42.1461457,63.0902183 L42.1461457,31.3642189 L56.5647549,31.3642189 L56.5647549,91.3140913 Z" id="Shape" fill="#1B1A19"></path>
        </g>
    </g>
</svg>
