<?xml version="1.0" encoding="UTF-8"?>
<svg viewBox="0 0 284 56" version="1.1" xmlns="http://www.w3.org/2000/svg" xmlns:xlink="http://www.w3.org/1999/xlink">
    <!-- Generator: Sketch 53.2 (72643) - https://sketchapp.com -->
    <title>DE--boilerplate-logo</title>
    <desc>Created with Sketch.</desc>
    <g id="Page-1" stroke="none" stroke-width="1" fill="none" fill-rule="evenodd">
        <g id="DE--boilerplate-logo" fill="#C11E43" fill-rule="nonzero">
            <g id="logo-copy-3">
                <path d="M30.2402549,32.3438155 C30.2402549,36.2767296 27.1238928,39.4465409 23.2572953,39.4465409 C19.3906978,39.4465409 16.2743357,36.2767296 16.2743357,32.3438155 C16.2743357,28.4109015 19.3906978,25.2410901 23.2572953,25.2410901 C27.1238928,25.1823899 30.2402549,28.4109015 30.2402549,32.3438155 C30.2402549,32.3438155 30.2402549,32.3438155 30.2402549,32.3438155 Z M52.3433421,29.5849057 L35.318771,29.5849057 C35.030219,28.1174004 34.4531149,26.7672956 33.7028796,25.5932914 L45.7066449,13.3249476 C46.7454323,12.2683438 46.7454323,10.5073375 45.7066449,9.45073375 C44.6678575,8.39412998 42.9365452,8.39412998 41.8977578,9.45073375 L29.8939925,21.7190776 C28.6820739,20.9559748 27.3547344,20.3689727 25.9696846,20.0754717 L25.9696846,2.75890985 C25.9696846,1.2327044 24.757766,0 23.2572953,0 C21.7568246,0 20.544906,1.2327044 20.544906,2.75890985 L20.544906,20.0167715 C19.1021458,20.3689727 17.7748063,20.8972746 16.6205981,21.6603774 L4.61683282,9.45073375 C3.57804543,8.39412998 1.84673313,8.39412998 0.807945743,9.45073375 C-0.230841641,10.5073375 -0.230841641,12.2683438 0.807945743,13.3249476 L12.8117111,25.5345912 C12.0614757,26.7672956 11.4843716,28.1174004 11.1958196,29.5262055 L2.71238928,29.5262055 C1.21191861,29.5262055 0,30.7589099 0,32.2851153 C-1.28142852e-16,33.870021 1.21191861,35.0440252 2.71238928,35.0440252 L11.1958196,35.0440252 C11.4843716,36.5115304 12.0614757,37.8616352 12.8117111,39.0356394 L0.807945743,51.3039832 C-0.230841641,52.360587 -0.230841641,54.1215933 0.807945743,55.1781971 C1.32733943,55.706499 2.01986436,56 2.71238928,56 C3.4049142,56 4.09743912,55.706499 4.61683282,55.1781971 L16.6205981,42.9685535 C17.8325168,43.7316562 19.1598562,44.3186583 20.544906,44.6121593 L20.544906,53.2410901 C20.544906,54.7672956 21.7568246,56 23.2572953,56 C24.757766,56 25.9696846,54.7672956 25.9696846,53.2410901 L25.9696846,44.6121593 C27.4124448,44.2599581 28.7397843,43.7316562 29.8939925,42.9685535 L41.8977578,55.1781971 C42.4171515,55.706499 43.1096764,56 43.8022013,56 C44.4947263,56 45.1872512,55.706499 45.7066449,55.1781971 C46.7454323,54.1215933 46.7454323,52.360587 45.7066449,51.3039832 L33.7028796,39.0943396 C34.4531149,37.8616352 35.030219,36.5115304 35.318771,35.1027254 L52.2856316,35.1027254 C53.7861023,35.1027254 54.9980209,33.870021 54.9980209,32.3438155 C55.0557313,30.8176101 53.8438127,29.5849057 52.3433421,29.5849057 Z" id="Fill-3"></path>
                <path d="M11.147343,11.386087 C11.526087,12.3878261 12.5,13 13.473913,13 C13.7985507,13 14.1231884,12.9443478 14.4478261,12.7773913 C15.7463768,12.2208696 16.3415459,10.7182609 15.8004831,9.3826087 L13.852657,4.59652174 C13.3115942,3.26086957 11.8507246,2.64869565 10.5521739,3.20521739 C9.25362319,3.76173913 8.65845411,5.26434783 9.19951691,6.6 L11.147343,11.386087" id="Fill-4"></path>
                <path d="M50.3809247,41.4481928 L45.597784,39.2274699 C44.262954,38.6106024 42.7612702,39.2891566 42.2050911,40.7696386 C41.6489119,42.2501205 42.260709,43.9156627 43.595539,44.5325301 L48.3786798,46.753253 C48.7123873,46.8766265 49.0460948,47 49.3798023,47 C50.3809247,47 51.3820472,46.3214458 51.7713726,45.2110843 C52.3831697,43.7306024 51.7157547,42.0033735 50.3809247,41.4481928" id="Fill-5"></path>
                <path d="M30.5521739,12.7557284 C30.8768116,12.8778642 31.2014493,13 31.526087,13 C32.5,13 33.473913,12.328253 33.852657,11.2290307 L35.8004831,5.97719073 C36.3415459,4.51156097 35.7463768,2.86272749 34.4478261,2.25204842 C33.1492754,1.58030145 31.6884058,2.31311633 31.147343,3.71767818 L29.1995169,8.96951816 C28.6584541,10.4962158 29.2536232,12.1450493 30.5521739,12.7557284" id="Fill-6"></path>
                <path d="M42.1980981,24.2110843 C42.5886399,25.3214458 43.5928902,26 44.5971406,26 C44.9318907,26 45.2666408,25.9383133 45.601391,25.753253 L50.399476,23.5325301 C51.7384765,22.9156627 52.352185,21.2501205 51.7942682,19.7696386 C51.2363513,18.2891566 49.7299758,17.6106024 48.3909753,18.2274699 L43.5928902,20.4481928 C42.3096815,21.0033735 41.6401812,22.7306024 42.1980981,24.2110843" id="Fill-7"></path>
            </g>
            <path d="M87.467,14.103 C89.1196749,14.103 90.5873269,14.4298301 91.87,15.0835 C93.1526731,15.7371699 94.1578297,16.6498275 94.8855,17.8215 C95.6131703,18.9931725 95.977,20.3189926 95.977,21.799 C95.977,23.0076727 95.6501699,24.0929952 94.9965,25.055 C94.3428301,26.0170048 93.4486723,26.793997 92.314,27.386 C93.9913417,27.7806686 95.3109952,28.5699941 96.273,29.754 C97.2350048,30.9380059 97.716,32.4426575 97.716,34.268 C97.716,35.9453417 97.3151707,37.4499933 96.5135,38.782 C95.7118293,40.1140067 94.5895072,41.1499963 93.1465,41.89 C91.7034928,42.6300037 90.0693425,43 88.244,43 L78.624,43 C78.0813306,43 77.6250018,42.8150019 77.255,42.445 C76.8849981,42.0749982 76.7,41.6186694 76.7,41.076 L76.7,16.027 C76.7,15.4596638 76.8849981,14.9971685 77.255,14.6395 C77.6250018,14.2818315 78.0813306,14.103 78.624,14.103 L87.467,14.103 Z M87.467,25.98 C88.9223406,25.98 90.087829,25.6223369 90.9635,24.907 C91.839171,24.1916631 92.277,23.1556734 92.277,21.799 C92.277,20.4423265 91.839171,19.4125035 90.9635,18.7095 C90.087829,18.0064965 88.9223406,17.655 87.467,17.655 L80.548,17.655 L80.548,25.98 L87.467,25.98 Z M88.244,39.448 C89.9706753,39.448 91.364328,38.9978378 92.425,38.0975 C93.485672,37.1971622 94.016,35.9206749 94.016,34.268 C94.016,32.738659 93.4918386,31.5670041 92.4435,30.753 C91.3951614,29.9389959 89.9953421,29.532 88.244,29.532 L80.548,29.532 L80.548,39.448 L88.244,39.448 Z M112.257,22.613 C114.205676,22.613 115.950826,23.050829 117.4925,23.9265 C119.034174,24.802171 120.242829,26.0169922 121.1185,27.571 C121.994171,29.1250078 122.432,30.90099 122.432,32.899 C122.432,34.8723432 122.000338,36.6359922 121.137,38.19 C120.273662,39.7440078 119.071174,40.958829 117.5295,41.8345 C115.987826,42.710171 114.230343,43.148 112.257,43.148 C110.283657,43.148 108.520008,42.710171 106.966,41.8345 C105.411992,40.958829 104.203338,39.7440078 103.34,38.19 C102.476662,36.6359922 102.045,34.8723432 102.045,32.899 C102.045,30.90099 102.476662,29.1250078 103.34,27.571 C104.203338,26.0169922 105.411992,24.802171 106.966,23.9265 C108.520008,23.050829 110.283657,22.613 112.257,22.613 Z M112.257,25.943 C110.998994,25.943 109.870505,26.238997 108.8715,26.831 C107.872495,27.423003 107.089336,28.249328 106.522,29.31 C105.954664,30.370672 105.671,31.5669933 105.671,32.899 C105.671,34.2310067 105.954664,35.4211614 106.522,36.4695 C107.089336,37.5178386 107.872495,38.337997 108.8715,38.93 C109.870505,39.522003 110.998994,39.818 112.257,39.818 C113.515006,39.818 114.643495,39.522003 115.6425,38.93 C116.641505,38.337997 117.418497,37.5178386 117.9735,36.4695 C118.528503,35.4211614 118.806,34.2310067 118.806,32.899 C118.806,31.5669933 118.528503,30.370672 117.9735,29.31 C117.418497,28.249328 116.641505,27.423003 115.6425,26.831 C114.643495,26.238997 113.515006,25.943 112.257,25.943 Z M128.426,24.648 C128.426,24.0806638 128.604832,23.6243351 128.9625,23.279 C129.320168,22.9336649 129.770331,22.761 130.313,22.761 C130.880336,22.761 131.336665,22.9336649 131.682,23.279 C132.027335,23.6243351 132.2,24.0806638 132.2,24.648 L132.2,41.113 C132.2,41.6556694 132.027335,42.1058315 131.682,42.4635 C131.336665,42.8211685 130.880336,43 130.313,43 C129.770331,43 129.320168,42.8211685 128.9625,42.4635 C128.604832,42.1058315 128.426,41.6556694 128.426,41.113 L128.426,24.648 Z M130.313,14.584 C130.979003,14.584 131.552498,14.8244976 132.0335,15.3055 C132.514502,15.7865024 132.755,16.3599967 132.755,17.026 C132.755,17.6920033 132.514502,18.2654976 132.0335,18.7465 C131.552498,19.2275024 130.979003,19.468 130.313,19.468 C129.646997,19.468 129.073502,19.2275024 128.5925,18.7465 C128.111498,18.2654976 127.871,17.6920033 127.871,17.026 C127.871,16.3599967 128.111498,15.7865024 128.5925,15.3055 C129.073502,14.8244976 129.646997,14.584 130.313,14.584 Z M138.49,15.953 C138.49,15.4103306 138.662665,14.9663351 139.008,14.621 C139.353335,14.2756649 139.797331,14.103 140.34,14.103 C140.882669,14.103 141.326665,14.2756649 141.672,14.621 C142.017335,14.9663351 142.19,15.4103306 142.19,15.953 L142.19,36.155 C142.19,37.0676712 142.362665,37.819997 142.708,38.412 C143.053335,39.004003 143.497331,39.3 144.04,39.3 L144.965,39.3 C145.458336,39.3 145.859165,39.4726649 146.1675,39.818 C146.475835,40.1633351 146.63,40.6073306 146.63,41.15 C146.63,41.6926694 146.395669,42.1366649 145.927,42.482 C145.458331,42.8273351 144.854004,43 144.114,43 L144.04,43 C142.979328,43 142.023504,42.7101696 141.1725,42.1305 C140.321496,41.5508304 139.661669,40.7368386 139.193,39.6885 C138.724331,38.6401614 138.49,37.4623399 138.49,36.155 L138.49,15.953 Z M168.497,32.566 C168.497,33.034669 168.336668,33.4231651 168.016,33.7315 C167.695332,34.0398349 167.288336,34.194 166.795,34.194 L152.735,34.194 C153.006335,35.9206753 153.789494,37.314328 155.0845,38.375 C156.379506,39.435672 157.964324,39.966 159.839,39.966 C160.579004,39.966 161.349829,39.8303347 162.1515,39.559 C162.953171,39.2876653 163.612997,38.9546686 164.131,38.56 C164.476335,38.2886653 164.883331,38.153 165.352,38.153 C165.820669,38.153 166.190665,38.2763321 166.462,38.523 C166.906002,38.8930019 167.128,39.312331 167.128,39.781 C167.128,40.2250022 166.930669,40.5949985 166.536,40.891 C165.697329,41.5570033 164.655173,42.0996646 163.4095,42.519 C162.163827,42.9383354 160.973672,43.148 159.839,43.148 C157.816323,43.148 156.003341,42.710171 154.4,41.8345 C152.796659,40.958829 151.544838,39.7440078 150.6445,38.19 C149.744162,36.6359922 149.294,34.8723432 149.294,32.899 C149.294,30.9256568 149.719496,29.1558412 150.5705,27.5895 C151.421504,26.0231588 152.605492,24.802171 154.1225,23.9265 C155.639508,23.050829 157.35999,22.613 159.284,22.613 C161.183343,22.613 162.82366,23.0323291 164.205,23.871 C165.58634,24.7096709 166.646996,25.8813258 167.387,27.386 C168.127004,28.8906742 168.497,30.6173236 168.497,32.566 Z M159.284,25.795 C157.483324,25.795 156.021839,26.2883284 154.8995,27.275 C153.777161,28.2616716 153.068001,29.5813251 152.772,31.234 L165.093,31.234 C164.870999,29.5813251 164.254338,28.2616716 163.243,27.275 C162.231662,26.2883284 160.912008,25.795 159.284,25.795 Z M183.223,22.539 C184.53034,22.539 185.553996,22.7363314 186.294,23.131 C187.034004,23.5256686 187.404,24.018997 187.404,24.611 C187.404,24.7836675 187.391667,24.9069996 187.367,24.981 C187.144999,25.7703373 186.65167,26.165 185.887,26.165 C185.763666,26.165 185.578668,26.1403336 185.332,26.091 C184.345328,25.9183325 183.54367,25.832 182.927,25.832 C181.150991,25.832 179.720339,26.2389959 178.635,27.053 C177.549661,27.8670041 177.007,28.9646598 177.007,30.346 L177.007,41.15 C177.007,41.742003 176.852835,42.1983317 176.5445,42.519 C176.236165,42.8396683 175.77367,43 175.157,43 C174.564997,43 174.108668,42.8458349 173.788,42.5375 C173.467332,42.2291651 173.307,41.7666697 173.307,41.15 L173.307,24.611 C173.307,24.018997 173.467332,23.5626683 173.788,23.242 C174.108668,22.9213317 174.564997,22.761 175.157,22.761 C176.39034,22.761 177.007,23.3776605 177.007,24.611 L177.007,25.314 C177.747004,24.4506623 178.659661,23.7723358 179.745,23.279 C180.830339,22.7856642 181.98966,22.539 183.223,22.539 Z M198.964,22.613 C200.863343,22.613 202.596159,23.0631622 204.1625,23.9635 C205.728841,24.8638378 206.955996,26.0971588 207.844,27.6635 C208.732004,29.2298412 209.176,30.9749904 209.176,32.899 C209.176,34.8230096 208.762837,36.5681588 207.9365,38.1345 C207.110163,39.7008412 205.975507,40.9279956 204.5325,41.816 C203.089493,42.7040044 201.480009,43.148 199.704,43.148 C198.273326,43.148 196.94134,42.852003 195.708,42.26 C194.474661,41.667997 193.426338,40.841672 192.563,39.781 L192.563,49.771 C192.563,50.3383362 192.390335,50.7946649 192.045,51.14 C191.699665,51.4853351 191.243336,51.658 190.676,51.658 C190.133331,51.658 189.683168,51.4853351 189.3255,51.14 C188.967832,50.7946649 188.789,50.3383362 188.789,49.771 L188.789,32.899 C188.789,30.9749904 189.239162,29.2298412 190.1395,27.6635 C191.039838,26.0971588 192.260826,24.8638378 193.8025,23.9635 C195.344174,23.0631622 197.064657,22.613 198.964,22.613 Z M198.964,39.818 C200.197339,39.818 201.313495,39.5158364 202.3125,38.9115 C203.311505,38.3071636 204.10083,37.4808386 204.6805,36.4325 C205.26017,35.3841614 205.55,34.2063399 205.55,32.899 C205.55,31.5916601 205.26017,30.407672 204.6805,29.347 C204.10083,28.286328 203.311505,27.4538364 202.3125,26.8495 C201.313495,26.2451636 200.197339,25.943 198.964,25.943 C197.73066,25.943 196.614505,26.2451636 195.6155,26.8495 C194.616495,27.4538364 193.833336,28.286328 193.266,29.347 C192.698664,30.407672 192.415,31.5916601 192.415,32.899 C192.415,34.2063399 192.698664,35.3841614 193.266,36.4325 C193.833336,37.4808386 194.616495,38.3071636 195.6155,38.9115 C196.614505,39.5158364 197.73066,39.818 198.964,39.818 Z M214.06,15.953 C214.06,15.4103306 214.232665,14.9663351 214.578,14.621 C214.923335,14.2756649 215.367331,14.103 215.91,14.103 C216.452669,14.103 216.896665,14.2756649 217.242,14.621 C217.587335,14.9663351 217.76,15.4103306 217.76,15.953 L217.76,36.155 C217.76,37.0676712 217.932665,37.819997 218.278,38.412 C218.623335,39.004003 219.067331,39.3 219.61,39.3 L220.535,39.3 C221.028336,39.3 221.429165,39.4726649 221.7375,39.818 C222.045835,40.1633351 222.2,40.6073306 222.2,41.15 C222.2,41.6926694 221.965669,42.1366649 221.497,42.482 C221.028331,42.8273351 220.424004,43 219.684,43 L219.61,43 C218.549328,43 217.593504,42.7101696 216.7425,42.1305 C215.891496,41.5508304 215.231669,40.7368386 214.763,39.6885 C214.294331,38.6401614 214.06,37.4623399 214.06,36.155 L214.06,15.953 Z M235.076,22.613 C236.975343,22.613 238.695826,23.0631622 240.2375,23.9635 C241.779174,24.8638378 243.000162,26.0971588 243.9005,27.6635 C244.800838,29.2298412 245.251,30.9749904 245.251,32.899 L245.251,41.15 C245.251,41.6926694 245.072168,42.1428315 244.7145,42.5005 C244.356832,42.8581685 243.906669,43.037 243.364,43.037 C242.821331,43.037 242.371168,42.8581685 242.0135,42.5005 C241.655832,42.1428315 241.477,41.6926694 241.477,41.15 L241.477,39.781 C240.613662,40.841672 239.565339,41.667997 238.332,42.26 C237.09866,42.852003 235.766674,43.148 234.336,43.148 C232.559991,43.148 230.950507,42.7040044 229.5075,41.816 C228.064493,40.9279956 226.929837,39.7008412 226.1035,38.1345 C225.277163,36.5681588 224.864,34.8230096 224.864,32.899 C224.864,30.9749904 225.307996,29.2298412 226.196,27.6635 C227.084004,26.0971588 228.311159,24.8638378 229.8775,23.9635 C231.443841,23.0631622 233.176657,22.613 235.076,22.613 Z M235.076,39.818 C236.30934,39.818 237.425495,39.5158364 238.4245,38.9115 C239.423505,38.3071636 240.206664,37.4808386 240.774,36.4325 C241.341336,35.3841614 241.625,34.2063399 241.625,32.899 C241.625,31.5916601 241.341336,30.407672 240.774,29.347 C240.206664,28.286328 239.423505,27.4538364 238.4245,26.8495 C237.425495,26.2451636 236.30934,25.943 235.076,25.943 C233.84266,25.943 232.726505,26.2451636 231.7275,26.8495 C230.728495,27.4538364 229.93917,28.286328 229.3595,29.347 C228.77983,30.407672 228.49,31.5916601 228.49,32.899 C228.49,34.2063399 228.77983,35.3841614 229.3595,36.4325 C229.93917,37.4808386 230.728495,38.3071636 231.7275,38.9115 C232.726505,39.5158364 233.84266,39.818 235.076,39.818 Z M259.496,39.3 C259.940002,39.3 260.316165,39.4726649 260.6245,39.818 C260.932835,40.1633351 261.087,40.6073306 261.087,41.15 C261.087,41.6926694 260.883502,42.1366649 260.4765,42.482 C260.069498,42.8273351 259.545337,43 258.904,43 L258.238,43 C257.029327,43 255.925505,42.6855031 254.9265,42.0565 C253.927495,41.4274969 253.144336,40.5703388 252.577,39.485 C252.009664,38.3996612 251.726,37.1786734 251.726,35.822 L251.726,26.683 L250.024,26.683 C249.505997,26.683 249.086668,26.5350015 248.766,26.239 C248.445332,25.9429985 248.285,25.5730022 248.285,25.129 C248.285,24.6356642 248.445332,24.2410015 248.766,23.945 C249.086668,23.6489985 249.505997,23.501 250.024,23.501 L251.726,23.501 L251.726,18.173 C251.726,17.6303306 251.898665,17.1863351 252.244,16.841 C252.589335,16.4956649 253.033331,16.323 253.576,16.323 C254.118669,16.323 254.562665,16.4956649 254.908,16.841 C255.253335,17.1863351 255.426,17.6303306 255.426,18.173 L255.426,23.501 L258.571,23.501 C259.089003,23.501 259.508332,23.6489985 259.829,23.945 C260.149668,24.2410015 260.31,24.6356642 260.31,25.129 C260.31,25.5730022 260.149668,25.9429985 259.829,26.239 C259.508332,26.5350015 259.089003,26.683 258.571,26.683 L255.426,26.683 L255.426,35.822 C255.426,36.8086716 255.697331,37.6349967 256.24,38.301 C256.782669,38.9670033 257.448663,39.3 258.238,39.3 L259.496,39.3 Z M283.879,32.566 C283.879,33.034669 283.718668,33.4231651 283.398,33.7315 C283.077332,34.0398349 282.670336,34.194 282.177,34.194 L268.117,34.194 C268.388335,35.9206753 269.171494,37.314328 270.4665,38.375 C271.761506,39.435672 273.346324,39.966 275.221,39.966 C275.961004,39.966 276.731829,39.8303347 277.5335,39.559 C278.335171,39.2876653 278.994997,38.9546686 279.513,38.56 C279.858335,38.2886653 280.265331,38.153 280.734,38.153 C281.202669,38.153 281.572665,38.2763321 281.844,38.523 C282.288002,38.8930019 282.51,39.312331 282.51,39.781 C282.51,40.2250022 282.312669,40.5949985 281.918,40.891 C281.079329,41.5570033 280.037173,42.0996646 278.7915,42.519 C277.545827,42.9383354 276.355672,43.148 275.221,43.148 C273.198323,43.148 271.385341,42.710171 269.782,41.8345 C268.178659,40.958829 266.926838,39.7440078 266.0265,38.19 C265.126162,36.6359922 264.676,34.8723432 264.676,32.899 C264.676,30.9256568 265.101496,29.1558412 265.9525,27.5895 C266.803504,26.0231588 267.987492,24.802171 269.5045,23.9265 C271.021508,23.050829 272.74199,22.613 274.666,22.613 C276.565343,22.613 278.20566,23.0323291 279.587,23.871 C280.96834,24.7096709 282.028996,25.8813258 282.769,27.386 C283.509004,28.8906742 283.879,30.6173236 283.879,32.566 Z M274.666,25.795 C272.865324,25.795 271.403839,26.2883284 270.2815,27.275 C269.159161,28.2616716 268.450001,29.5813251 268.154,31.234 L280.475,31.234 C280.252999,29.5813251 279.636338,28.2616716 278.625,27.275 C277.613662,26.2883284 276.294008,25.795 274.666,25.795 Z" id="Boilerplate"></path>
        </g>
    </g>
</svg>