<?xml version="1.0" standalone="no"?>
<!DOCTYPE svg PUBLIC "-//W3C//DTD SVG 20010904//EN"
 "http://www.w3.org/TR/2001/REC-SVG-20010904/DTD/svg10.dtd">
<svg version="1.0" xmlns="http://www.w3.org/2000/svg"
 width="1000.000000pt" height="1000.000000pt" viewBox="0 0 1000.000000 1000.000000"
 preserveAspectRatio="xMidYMid meet">
<metadata>
Created by potrace 1.11, written by Peter Selinger 2001-2013
</metadata>
<g transform="translate(0.000000,1000.000000) scale(0.100000,-0.100000)"
fill="#000000" stroke="none">
<path d="M4845 9944 c-1517 -51 -2908 -779 -3816 -1996 -551 -739 -882 -1620
-960 -2553 -15 -180 -15 -610 0 -790 87 -1041 474 -1982 1152 -2796 133 -159
429 -455 588 -588 813 -677 1758 -1066 2796 -1152 180 -14 610 -14 790 0 834
69 1628 341 2322 798 470 308 912 726 1254 1185 422 566 721 1229 868 1924 71
334 103 652 103 1024 0 285 -11 453 -48 709 -102 716 -361 1400 -761 2008
-308 470 -726 912 -1185 1254 -491 367 -1081 652 -1668 808 -446 119 -980 180
-1435 165z m292 -1074 c62 -26 135 -100 166 -168 l22 -47 3 -1085 2 -1085 98
-28 c123 -35 248 -86 326 -132 l59 -36 756 754 c613 611 765 758 806 777 75
35 191 39 270 9 80 -30 154 -104 184 -184 30 -79 26 -195 -9 -270 -19 -41
-166 -193 -777 -806 l-754 -755 55 -108 c30 -60 74 -168 98 -242 l43 -133
1085 -3 1085 -3 55 -26 c74 -34 120 -76 156 -141 26 -48 29 -61 29 -148 0 -78
-4 -104 -24 -147 -28 -62 -102 -136 -169 -166 l-47 -22 -1085 -3 -1085 -2 -28
-98 c-35 -122 -86 -248 -132 -325 l-35 -59 139 -147 c77 -80 262 -267 411
-416 149 -148 426 -428 615 -621 l344 -351 22 -73 c36 -120 14 -227 -68 -326
-94 -113 -247 -142 -386 -73 -28 14 -288 267 -798 775 l-755 755 -110 -55
c-60 -30 -168 -75 -241 -98 l-132 -43 -1 -541 c0 -514 -1 -545 -20 -607 -91
-295 -529 -295 -620 0 -19 62 -20 92 -20 607 l0 541 -98 28 c-122 35 -248 86
-326 133 l-60 35 -765 -764 c-548 -548 -779 -772 -811 -788 -63 -31 -161 -37
-236 -13 -46 14 -72 31 -120 79 -80 78 -107 146 -102 255 6 139 -21 107 755
892 384 387 722 729 751 760 l53 54 -55 108 c-30 60 -74 168 -98 242 l-43 133
-541 1 c-514 0 -545 1 -607 20 -295 91 -295 529 0 620 62 19 92 20 607 20
l541 0 28 98 c35 123 86 248 133 326 l36 61 -761 755 c-853 847 -815 802 -815
945 -1 102 25 166 93 236 74 75 144 102 251 97 139 -6 107 21 892 -755 387
-384 729 -722 760 -751 l54 -53 108 55 c60 30 168 74 242 98 l133 43 3 1085 3
1085 22 47 c25 55 94 133 137 155 93 49 210 54 303 13z m-1380 -261 c42 -16
73 -37 113 -78 53 -54 61 -71 200 -396 l145 -340 -1 -85 c0 -66 -5 -96 -22
-133 -45 -100 -124 -166 -233 -192 -83 -21 -141 -15 -216 21 -101 49 -123 85
-283 465 l-145 344 1 90 c0 70 5 100 21 136 38 84 117 155 194 178 61 17 164
13 226 -10z m2730 -11 c70 -26 145 -98 180 -173 22 -48 27 -74 27 -130 -1 -67
-8 -86 -150 -430 -140 -337 -152 -362 -199 -411 -94 -96 -238 -121 -366 -62
-101 46 -154 108 -185 214 -28 98 -19 131 131 492 150 359 168 395 220 441 98
86 214 106 342 59z m1968 -1928 c53 -26 119 -90 148 -144 18 -34 22 -58 22
-141 0 -121 -19 -171 -93 -243 -45 -44 -76 -59 -388 -189 -402 -167 -391 -163
-465 -163 -123 0 -225 65 -281 178 -29 59 -33 76 -33 147 1 118 48 212 138
273 63 44 691 303 752 311 67 9 146 -3 200 -29z m-610 -2484 c416 -168 630
-264 672 -300 120 -105 153 -259 87 -406 -36 -81 -96 -134 -182 -160 -77 -24
-121 -25 -188 -5 -90 26 -694 284 -738 315 -54 36 -102 107 -123 179 -40 140
36 309 171 378 96 49 177 49 301 -1z"/>
<path d="M4884 5850 c-339 -48 -626 -305 -715 -640 -32 -120 -32 -300 0 -420
80 -301 320 -541 621 -621 120 -32 300 -32 420 0 301 80 541 320 621 621 32
120 32 300 0 420 -79 298 -321 542 -614 619 -90 23 -246 33 -333 21z"/>
</g>
</svg>
