<svg width="74" height="74" xmlns="http://www.w3.org/2000/svg"><g id="Resource---August-19--√" stroke="none" stroke-width="1" fill="none" fill-rule="evenodd"><g id="ducks-wireframes-resources-august16" transform="translate(-589 -2258)" fill="#3D3E40"><g id="Group-3" transform="translate(0 2133)"><g id="Group-2" transform="translate(559 74)"><g id="Group" transform="translate(30 51)"><path d="M49.447 39.226c.562-.581.833-1.168.807-1.743-.032-.858-.71-1.497-.716-1.503a.863.863 0 01-.155-1.123c.084-.136.826-1.4-.22-2.356-1.232-1.123-4.782-.858-6.763-.426l-.084.02c-.355.058-.73.135-1.123.225-.413.149-.98.13-1.407-.251-.858-.762-.768-2.491.317-5.776.71-2.156.735-3.782.077-4.692-.555-.768-1.478-.865-1.82-.871-.155.264-.194 1.148-.084 1.871a.817.817 0 01-.038.433c-.123.335-2.956 8.086-5.854 10.384-.762.82-1.084 1.78-1.2 2.213.077.252.122.523.122.8v10.494c0 .194-.02.387-.058.568l.652.077h.006c.046.007 4.24.549 8.39.459h.09c1.95.155 3.537.11 4.705-.142 1.459-.31 2.42-.865 2.853-1.64.452-.806.174-1.658.174-1.665a.88.88 0 01.297-.993c.852-.64 1.258-1.388 1.213-2.233-.032-.62-.297-1.072-.297-1.078a.867.867 0 01.116-1.052zm-24.762 8.641v-.006h3.936c.517 0 .943-.42.943-.942V36.43a.943.943 0 00-.943-.942h-3.936a.943.943 0 00-.943.942v10.494c0 .516.42.942.943.942zM51.1 39.981c.122.329.238.774.264 1.297.045.904-.18 2.188-1.465 3.35.084.593.084 1.529-.439 2.471-.684 1.233-2.033 2.072-4.007 2.491-.84.181-1.846.271-3.001.271-.671 0-1.394-.032-2.162-.09-4.24.084-8.37-.439-8.603-.471l-1.517-.18a2.68 2.68 0 01-1.549.49h-3.936A2.687 2.687 0 0122 46.925V36.438c0-1.478 1.2-2.685 2.685-2.685h3.936c.465 0 .898.116 1.278.323a6.933 6.933 0 011.265-1.898.695.695 0 01.103-.09c2.02-1.555 4.408-7.157 5.26-9.442-.09-.71-.174-2.246.542-3.078A1.621 1.621 0 0138.315 19c.503 0 2.214.116 3.285 1.594 1.02 1.407 1.071 3.51.168 6.26-.762 2.31-.833 3.337-.807 3.75.348-.078.69-.149 1.013-.207h.007c.058-.013 1.477-.329 3.175-.406 2.413-.117 4.156.303 5.182 1.239 1.4 1.277 1.24 2.923.82 3.969.361.47.8 1.239.839 2.22.038.89-.265 1.755-.897 2.562zM37 74C16.565 74 0 57.435 0 37S16.565 0 37 0s37 16.565 37 37-16.565 37-37 37zm0-2c19.33 0 35-15.67 35-35S56.33 2 37 2 2 17.67 2 37s15.67 35 35 35z" id="Combined-Shape"/></g></g></g></g></g></svg>