<svg width="18" height="18" xmlns="http://www.w3.org/2000/svg"><g id="CNT-Wireframe" stroke="none" stroke-width="1" fill="none" fill-rule="evenodd"><path d="M9 15.68c1.2 0 2.32-.307 3.36-.92a6.477 6.477 0 002.4-2.4c.613-1.04.92-2.16.92-3.36 0-1.2-.307-2.32-.92-3.36a6.477 6.477 0 00-2.4-2.4A6.501 6.501 0 009 2.32c-1.2 0-2.32.307-3.36.92a6.477 6.477 0 00-2.4 2.4A6.501 6.501 0 002.32 9c0 1.2.307 2.32.92 3.36a6.477 6.477 0 002.4 2.4c1.04.613 2.16.92 3.36.92zm0-15c1.52 0 2.927.38 4.22 1.14a7.886 7.886 0 012.96 2.96A8.182 8.182 0 0117.32 9c0 1.52-.38 2.927-1.14 4.22a7.886 7.886 0 01-2.96 2.96A8.182 8.182 0 019 17.32c-1.52 0-2.927-.38-4.22-1.14a8.035 8.035 0 01-2.96-2.98A8.146 8.146 0 01.68 9c0-1.507.38-2.907 1.14-4.2A8.188 8.188 0 014.8 1.82 8.146 8.146 0 019 .68zm-.82 4.14h1.64v5H8.18v-5zm0 6.68h1.64v1.68H8.18V11.5z" id="юдЕ" fill="#000" fill-rule="nonzero"/></g></svg>