<svg width="17" height="17" xmlns="http://www.w3.org/2000/svg"><g id="Page-1" stroke="none" stroke-width="1" fill="none" fill-rule="evenodd"><g id="boilerplate--wireframe--landing-page" transform="translate(-828 -98)" fill="#001F4E" fill-rule="nonzero"><g id="Search" transform="translate(810 81)"><path d="M30.201 27.201l4.576 4.598-1.353 1.353-4.598-4.576v-.709l-.236-.258a6.37 6.37 0 01-1.783 1.053 5.726 5.726 0 01-2.106.387c-.816 0-1.59-.158-2.32-.473a6.113 6.113 0 01-1.88-1.278 6.044 6.044 0 01-1.278-1.902 5.697 5.697 0 01-.473-2.32c0-.816.158-1.59.473-2.32a6.113 6.113 0 011.278-1.88 6.113 6.113 0 011.88-1.278 5.796 5.796 0 012.32-.473c.83 0 1.604.158 2.32.473.731.315 1.365.74 1.902 1.278a6.113 6.113 0 011.278 1.88c.315.73.473 1.504.473 2.32 0 .745-.13 1.447-.387 2.106a6.37 6.37 0 01-1.053 1.783l.258.236h.71zm-5.5 0c1.146 0 2.12-.4 2.922-1.203.802-.802 1.203-1.776 1.203-2.922 0-1.131-.4-2.102-1.203-2.911-.802-.81-1.776-1.214-2.922-1.214-1.131 0-2.102.405-2.911 1.214-.81.81-1.214 1.78-1.214 2.911 0 1.146.405 2.12 1.214 2.922.81.802 1.78 1.203 2.911 1.203z" id="search-icon"/></g></g></g></svg>