<svg width="12" height="12" xmlns="http://www.w3.org/2000/svg"><g id="Symbols" stroke="none" stroke-width="1" fill="none" fill-rule="evenodd"><g id="Main-Nav" transform="translate(-1300 -16)" fill="#000"><path d="M1304.477 23.556c.56 0 1.076-.14 1.548-.42.472-.28.845-.656 1.119-1.128.274-.472.412-.987.412-1.547 0-.56-.138-1.076-.412-1.547a3.042 3.042 0 00-1.12-1.12 3.024 3.024 0 00-1.547-.411c-.56 0-1.075.137-1.547.411a3.106 3.106 0 00-1.128 1.12c-.28.471-.42.987-.42 1.547 0 .56.14 1.075.42 1.547.28.472.656.848 1.128 1.128.472.28.988.42 1.547.42zm4.116 0l3.407 3.407-1.037 1.037-3.407-3.424v-.543l-.198-.181c-.384.34-.826.6-1.325.782-.5.18-1.018.271-1.556.271a4.423 4.423 0 01-2.247-.592 4.395 4.395 0 01-1.62-1.597 4.375 4.375 0 01-.61-2.255c0-.812.2-1.561.6-2.247a4.4 4.4 0 011.63-1.621 4.423 4.423 0 012.247-.593c.812 0 1.564.203 2.256.61a4.35 4.35 0 011.588 1.612c.39.68.584 1.427.584 2.239 0 .549-.09 1.073-.271 1.572a4.07 4.07 0 01-.782 1.325l.18.198h.56z" id="search-icon" transform="matrix(-1 0 0 1 2612 0)"/></g></g></svg>